<svg width="21" height="21" viewBox="0 0 21 21" fill="none" xmlns="http://www.w3.org/2000/svg">
<path d="M18.7136 2.7787C18.3816 2.45267 17.8434 2.45267 17.5115 2.7787L11.3112 8.86821L5.11105 2.7787C4.7791 2.45267 4.24091 2.45267 3.90897 2.7787C3.57702 3.10471 3.57702 3.6333 3.90897 3.95931L10.1092 10.0488L3.90898 16.1383C3.57703 16.4643 3.57703 16.9929 3.90898 17.3189C4.24093 17.6449 4.77912 17.6449 5.11106 17.3189L11.3112 11.2294L17.5115 17.3189C17.8434 17.6449 18.3816 17.6449 18.7136 17.3189C19.0455 16.9929 19.0455 16.4643 18.7136 16.1383L12.5133 10.0488L18.7136 3.95931C19.0455 3.6333 19.0455 3.10471 18.7136 2.7787Z" fill="white"/>
</svg>
