<?xml version="1.0" encoding="UTF-8"?>
<svg id="_Слой_2" data-name="Слой 2" xmlns="http://www.w3.org/2000/svg" viewBox="0 0 132 132">
  <defs>
    <style>
      .cls-1 {
        fill: #fff;
        stroke: #000;
        stroke-miterlimit: 10;
        stroke-width: 5px;
      }
    </style>
  </defs>
  <g id="_Слой_1-2" data-name="Слой 1">
    <path class="cls-1" d="m65.08,100.36c-16.14.17-26.59,9.18-28.98,11.34,8.59,5.64,18.86,8.92,29.9,8.92s20.89-3.15,29.38-8.56c-2.2-2.05-13.22-11.87-30.3-11.69Z"/>
    <path class="cls-1" d="m66,2.5C30.94,2.5,2.5,30.92,2.5,66s28.44,63.5,63.5,63.5,63.5-28.42,63.5-63.5S101.06,2.5,66,2.5Zm29.38,109.55c-8.48,5.42-18.56,8.56-29.38,8.56s-21.31-3.27-29.9-8.92c-14.87-9.74-24.7-26.58-24.7-45.7,0-23.19,14.45-43,34.82-50.92.68.28,9.75,4.11,11.68,13.95,1.88,9.55-4.6,16.27-5.24,16.9-3.43,3.42-5.55,8.14-5.55,13.37,0,10.43,8.45,18.88,18.88,18.88s18.88-8.45,18.88-18.88c0-5.37-2.25-10.22-5.85-13.66-.75-.78-6.44-6.91-5.14-15.61.99-6.64,5.69-12.3,12.25-14.81,20.18,8.01,34.46,27.72,34.46,50.77,0,19.35-10.06,36.34-25.23,46.05Z"/>
  </g>
</svg>