<svg width="20" height="20" viewBox="0 0 20 20" fill="none" xmlns="http://www.w3.org/2000/svg">
<path d="M10 12.5C11.3807 12.5 12.5 11.3807 12.5 10C12.5 8.61929 11.3807 7.5 10 7.5C8.61929 7.5 7.5 8.61929 7.5 10C7.5 11.3807 8.61929 12.5 10 12.5Z" stroke="white"/>
<path d="M11.4712 1.79352C11.1648 1.66666 10.7766 1.66666 10 1.66666C9.22342 1.66666 8.83517 1.66666 8.52884 1.79352C8.12048 1.96268 7.79602 2.28714 7.62687 2.69551C7.54965 2.88194 7.51942 3.09874 7.5076 3.41498C7.49022 3.87972 7.25189 4.3099 6.84912 4.54243C6.44637 4.77496 5.95467 4.76627 5.5435 4.54896C5.26372 4.40107 5.06085 4.31884 4.86079 4.29251C4.42254 4.23481 3.97932 4.35356 3.62864 4.62266C3.36562 4.82447 3.17148 5.16074 2.7832 5.83326C2.39492 6.5058 2.20077 6.84206 2.1575 7.17075C2.09981 7.60899 2.21857 8.05221 2.48766 8.40291C2.61047 8.56299 2.78309 8.69749 3.051 8.86582C3.44484 9.11332 3.69825 9.53491 3.69822 9.99999C3.6982 10.4651 3.4448 10.8866 3.05099 11.134C2.78305 11.3024 2.61041 11.437 2.48757 11.5971C2.21848 11.9477 2.09972 12.3909 2.15742 12.8292C2.20069 13.1578 2.39483 13.4942 2.78312 14.1667C3.17141 14.8392 3.36555 15.1755 3.62856 15.3772C3.97924 15.6463 4.42246 15.7651 4.86071 15.7074C5.06075 15.6811 5.26361 15.5988 5.54337 15.451C5.95457 15.2337 6.44631 15.225 6.84909 15.4575C7.25187 15.6901 7.49022 16.1202 7.5076 16.5851C7.51943 16.9012 7.54965 17.1181 7.62687 17.3045C7.79602 17.7128 8.12048 18.0373 8.52884 18.2065C8.83517 18.3333 9.22342 18.3333 10 18.3333C10.7766 18.3333 11.1648 18.3333 11.4712 18.2065C11.8795 18.0373 12.204 17.7128 12.3731 17.3045C12.4503 17.1181 12.4806 16.9012 12.4924 16.585C12.5098 16.1202 12.7481 15.6901 13.1508 15.4575C13.5536 15.2249 14.0453 15.2337 14.4566 15.451C14.7363 15.5988 14.9392 15.681 15.1392 15.7073C15.5774 15.7651 16.0207 15.6463 16.3713 15.3772C16.6343 15.1754 16.8285 14.8392 17.2168 14.1666C17.6051 13.4941 17.7993 13.1578 17.8425 12.8292C17.9002 12.3909 17.7814 11.9477 17.5123 11.597C17.3895 11.4369 17.2168 11.3023 16.9489 11.134C16.5552 10.8866 16.3018 10.465 16.3018 9.99991C16.3018 9.53482 16.5552 9.11341 16.9489 8.86599C17.2169 8.69757 17.3896 8.56307 17.5124 8.40291C17.7815 8.05226 17.9003 7.60905 17.8426 7.1708C17.7993 6.84211 17.6052 6.50585 17.2168 5.83332C16.8286 5.1608 16.6344 4.82453 16.3714 4.62271C16.0208 4.35362 15.5775 4.23486 15.1393 4.29256C14.9393 4.3189 14.7364 4.40112 14.4566 4.54899C14.0454 4.76631 13.5537 4.77501 13.1509 4.54246C12.7481 4.30991 12.5098 3.87971 12.4924 3.41494C12.4806 3.09872 12.4503 2.88193 12.3731 2.69551C12.204 2.28714 11.8795 1.96268 11.4712 1.79352Z" stroke="white"/>
</svg>
